<svg xmlns="http://www.w3.org/2000/svg" xml:space="preserve" viewBox="0 0 330 330">
	<path d="m304.394 139.394-139.39 139.393L25.607 139.393c-5.857-5.857-15.355-5.858-21.213.001-5.858 5.858-5.858 15.355 0 21.213l150.004 150c2.813 2.813 6.628 4.393 10.606 4.393s7.794-1.581 10.606-4.394l149.996-150c5.858-5.858 5.858-15.355 0-21.213-5.857-5.857-15.355-5.858-21.212.001z"/>
	<path d="M154.398 190.607c2.813 2.813 6.628 4.393 10.606 4.393s7.794-1.581 10.606-4.394l149.996-150c5.858-5.858 5.858-15.355 0-21.213-5.857-5.858-15.355-5.858-21.213 0l-139.39 139.393L25.607 19.393c-5.857-5.858-15.355-5.858-21.213 0-5.858 5.858-5.858 15.355 0 21.213l150.004 150.001z"/>
</svg>
