<svg xmlns="http://www.w3.org/2000/svg" width="800" height="800" viewBox="0 0 24 24">
  <g fill="none" fill-rule="evenodd">
    <path fill="#FFF" fill-opacity=".01" fill-rule="nonzero" d="M0 0h24v24H0z"/>
    <path stroke="#fff" stroke-linecap="round" stroke-linejoin="round" stroke-width="1.5" d="M4.929 16.379C3.119 16.922 2 17.672 2 18.5c0 1.657 4.477 3 10 3h0c5.523 0 10-1.343 10-3 0-.828-1.12-1.578-2.929-2.121"/>
    <path stroke="#fff" stroke-linejoin="round" stroke-width="1.5" d="M12 17.5s6.5-4.248 6.5-9.16C18.5 4.84 15.59 2 12 2S5.5 4.839 5.5 8.34c0 4.912 6.5 9.16 6.5 9.16Z"/>
    <path stroke="#fff" stroke-linejoin="round" stroke-width="1.5" d="M12 11a2.5 2.5 0 1 0 0-5 2.5 2.5 0 0 0 0 5Z"/>
  </g>
</svg>