<svg xmlns="http://www.w3.org/2000/svg" viewBox="0 0 24 24">
  <path d="M12 0C7.5817 0 4 3.5817 4 8c0 1.421.3816 2.75 1.0312 3.906.1079.192.221.381.3438.563L12 24l6.625-11.531c.102-.151.19-.311.281-.469l.063-.094C19.618 10.75 20 9.421 20 8c0-4.4183-3.582-8-8-8zm0 4c2.209 0 4 1.7909 4 4 0 2.209-1.791 4-4 4-2.2091 0-4-1.791-4-4 0-2.2091 1.7909-4 4-4z"/>
  <path d="M12 3C9.2386 3 7 5.2386 7 8c0 2.761 2.2386 5 5 5 2.761 0 5-2.239 5-5 0-2.7614-2.239-5-5-5zm0 2c1.657 0 3 1.3431 3 3s-1.343 3-3 3-3-1.3431-3-3 1.343-3 3-3z"/>
</svg>