<svg xmlns="http://www.w3.org/2000/svg" width="800" height="800" fill="none" viewBox="0 0 24 24">
    <path stroke-linecap="round" stroke-linejoin="round" stroke-width="1.5" d="M15 3c1.532.17 2.91.911 4 2 1.09 1.089 1.828 2.469 2 4m-6.5-2.5c.737.144 1.469.469 2 1 .531.531.856 1.263 1 2m-9.3 6.299C1.303 8.9 2.283 5.741 3.01 4.723c.094-.164 2.396-3.611 4.865-1.589C14 8.18 6.5 8 11.389 12.611c4.89 4.612 4.432-2.611 9.477 3.514 2.022 2.469-1.425 4.771-1.588 4.864-1.018.728-4.178 1.709-11.078-5.19Z"/>
</svg>