<?xml version="1.0" encoding="utf-8"?>

<!-- Uploaded to: SVG Repo, www.svgrepo.com, Generator: SVG Repo Mixer Tools -->
<svg fill="#000000" height="800px" width="800px" version="1.1" id="Icons" xmlns="http://www.w3.org/2000/svg" xmlns:xlink="http://www.w3.org/1999/xlink" 
	 viewBox="0 0 32 32" xml:space="preserve">
<path d="M26.5,14c-0.5,0-1,0.1-1.5,0.4V14c0,0,0,0,0,0c0.2-0.2,0.4-0.3,0.6-0.5c1-1,1.4-2.3,1.4-3.7c-0.1-1.7-1.1-3.2-2.7-4.1
	C23.2,5,22.2,4.9,21,5.1c-0.2-0.2-0.4-0.4-0.7-0.6c-0.2-0.1-0.3-0.3-0.5-0.4L19.6,4c-0.2-0.1-0.3-0.2-0.5-0.3
	c-0.1,0-0.2-0.1-0.2-0.1c-0.2-0.1-0.3-0.1-0.5-0.2l-0.2-0.1c-0.2-0.1-0.3-0.1-0.5-0.2c-0.1,0-0.1,0-0.2-0.1c-0.2,0-0.3-0.1-0.6-0.1
	l-0.2,0c-0.5-0.1-1.1,0-1.6,0c-0.1,0-0.1,0-0.3,0c-0.2,0-0.4,0.1-0.7,0.1l-0.2,0C13.5,3.4,13,3.7,12.5,4c0,0-0.1,0-0.1,0.1
	c-0.6,0.4-1.2,0.9-1.7,1.4c-1-0.4-2-0.6-3.1-0.4C5.3,5.4,3.4,7.3,3.1,9.7c-0.3,2,0.4,3.9,1.9,5.1v4c0,1.7-0.6,3.3-1.7,4.4
	c-1.1,1.1-1.5,2.6-1.1,4.2c0.5,1.6,2.1,2.8,4,2.8c1.1,0,2-0.4,2.7-1.1c0.9,0.7,2,1.1,3.1,1.1h8c2.5,0,4.6-1.9,4.9-4.4
	c0.5,0.2,1,0.4,1.6,0.4c1.9,0,3.5-1.6,3.5-3.5v-5C30,15.6,28.4,14,26.5,14z M14,25c0,0.6-0.4,1-1,1s-1-0.4-1-1v-6c0-0.6,0.4-1,1-1
	s1,0.4,1,1V25z M20,25c0,0.6-0.4,1-1,1s-1-0.4-1-1v-6c0-0.6,0.4-1,1-1s1,0.4,1,1V25z M24.2,12.1C23.6,12.7,22.8,13,22,13
	c-0.3,0-0.6-0.1-1-0.2c-0.4-0.1-0.8,0-1.1,0.3c-0.2,0.3-0.5,0.5-0.8,0.8c-0.1,0.1-0.2,0.2-0.4,0.3l-0.1,0.1
	c-0.1,0.1-0.2,0.1-0.3,0.2l-0.2,0.1c-0.1,0-0.2,0.1-0.3,0.1l-0.2,0.1c-0.1,0-0.2,0.1-0.4,0.1l-0.1,0c-0.1,0-0.2,0-0.4,0.1
	c0,0-0.2,0-0.2,0c-0.4,0-0.8,0-1.2,0l-0.2,0c-0.4-0.1-0.9-0.2-1.3-0.4c0,0-0.1-0.1-0.1-0.1c-0.2-0.1-0.4-0.2-0.6-0.3
	c-1-0.7-2.3-0.8-3.5-0.4c-1,0.4-1.7,1.3-1.7,2.3v10.1c0,1-0.8,1.8-1.9,1.8c-0.9,0-1.8-0.6-2-1.3c-0.2-0.8,0-1.6,0.5-2.1
	C6.1,23.1,7,21,7,18.7v-4.5c0-0.3-0.2-0.6-0.4-0.8C5.4,12.6,4.8,11.3,5,10C5.3,8.5,6.5,7.3,7.9,7c0.2,0,0.4,0,0.6,0
	c0.8,0,1.5,0.3,1.9,0.6c0.2,0.1,0.5,0.2,0.8,0.1c0.3-0.1,0.5-0.2,0.6-0.4c0.4-0.6,1-1.2,1.6-1.6c0,0,0,0,0.1,0l0,0
	c0.4-0.2,0.7-0.4,1.1-0.5c0,0,0.1,0,0.2,0c0.1,0,0.3-0.1,0.5-0.1l0.1,0c0.4,0,0.7-0.1,1.2,0c0,0,0.1,0,0.1,0c0.1,0,0.2,0,0.4,0.1
	l0.2,0c0.1,0,0.2,0.1,0.3,0.1l0.2,0.1c0.1,0,0.2,0.1,0.3,0.1l0.1,0.1c0.1,0.1,0.2,0.1,0.3,0.2c0,0,0.1,0.1,0.1,0.1
	C18.8,5.9,19,6,19.1,6.1c0.3,0.2,0.5,0.5,0.8,0.8c0.3,0.3,0.7,0.5,1.1,0.3c0.8-0.3,1.6-0.2,2.3,0.2c0,0,0,0,0,0
	c1,0.5,1.6,1.5,1.7,2.5C25,10.7,24.7,11.5,24.2,12.1z M28,22.5c0,0.8-0.7,1.5-1.5,1.5S25,23.3,25,22.5v-5c0-0.8,0.7-1.5,1.5-1.5
	s1.5,0.7,1.5,1.5V22.5z"/>
</svg>